<svg width="163" height="67" viewBox="0 0 163 67" fill="none" xmlns="http://www.w3.org/2000/svg">
<g filter="url(#filter0_d_121_319)">
<path d="M28.5383 27.5516C30.8072 26.7535 32.4458 24.6173 32.5071 22.0903C32.0829 21.9941 31.6415 21.9434 31.1881 21.9434C29.5612 21.9434 28.0869 22.5971 27.0137 23.6561C27.9039 24.7219 28.4643 26.0727 28.5383 27.5516Z" fill="white"/>
<path d="M28.5391 27.5512C28.5446 27.6622 28.5474 27.774 28.5474 27.8864H29.4483C31.5566 26.8622 33.0382 24.749 33.1617 22.2782C32.9491 22.2034 32.7309 22.1404 32.5079 22.0898C32.4466 24.6169 30.808 26.7531 28.5391 27.5512Z" fill="white"/>
<path d="M37.1314 27.8866C37.1314 25.2956 35.4735 23.0919 33.1607 22.2783C33.0372 24.7492 31.5556 26.8623 29.4473 27.8866H37.1314Z" fill="white"/>
<path d="M19.9707 22.2783C17.6579 23.0919 16 25.2956 16 27.8866H23.6841C21.5758 26.8623 20.0942 24.7492 19.9707 22.2783Z" fill="white"/>
<path d="M24.5914 27.5512C22.3225 26.7531 20.6838 24.6169 20.6225 22.0898C20.3996 22.1404 20.1814 22.2034 19.9688 22.2782C20.0923 24.749 21.5738 26.8622 23.6822 27.8864H24.5831C24.5831 27.774 24.5859 27.6622 24.5914 27.5512Z" fill="white"/>
<path d="M20.623 22.0903C20.6843 24.6173 22.323 26.7535 24.5919 27.5516C24.6659 26.0727 25.2263 24.7219 26.1165 23.6561C25.0433 22.5971 23.569 21.9434 21.9421 21.9434C21.4888 21.9434 21.0473 21.9941 20.623 22.0903Z" fill="white"/>
<path d="M26.5646 24.1499C26.4244 23.9768 26.2748 23.8116 26.1163 23.6553C25.2262 24.7211 24.6658 26.0718 24.5918 27.5507C24.8045 27.6255 25.0227 27.6886 25.2456 27.7391C25.2786 26.3807 25.7672 25.1353 26.5646 24.1499Z" fill="white"/>
<path d="M26.5651 27.8864C27.0184 27.8864 27.4598 27.8357 27.8841 27.7395C27.8511 26.3812 27.3624 25.1357 26.5651 24.1504C25.7677 25.1357 25.279 26.3812 25.2461 27.7395C25.6703 27.8357 26.1118 27.8864 26.5651 27.8864Z" fill="white"/>
<path d="M24.5923 27.5508C24.5868 27.6618 24.584 27.7736 24.584 27.886H25.2444C25.2444 27.8369 25.245 27.788 25.2462 27.7391C25.0232 27.6886 24.805 27.6256 24.5923 27.5508Z" fill="white"/>
<path d="M26.5649 27.8862C26.1116 27.8862 25.6701 27.8354 25.2459 27.7393C25.2447 27.7881 25.2441 27.837 25.2441 27.8862H26.5649Z" fill="white"/>
<path d="M27.8834 27.7393C27.4592 27.8354 27.0178 27.8862 26.5645 27.8862H27.8852C27.8852 27.837 27.8846 27.7881 27.8834 27.7393Z" fill="white"/>
<path d="M32.4843 21.4104C32.2147 18.3777 29.6672 16 26.5644 16C23.4616 16 20.9141 18.3777 20.6445 21.4104C21.064 21.3269 21.4977 21.2831 21.9417 21.2831C23.7416 21.2831 25.3732 22.0031 26.5644 23.1708C27.7556 22.0031 29.3873 21.2831 31.1871 21.2831C31.6311 21.2831 32.0648 21.3269 32.4843 21.4104Z" fill="white"/>
<path d="M27.0127 23.6553C26.8543 23.8116 26.7046 23.9768 26.5645 24.1499C27.3618 25.1353 27.8505 26.3807 27.8834 27.7391C28.1064 27.6886 28.3246 27.6255 28.5373 27.5507C28.4633 26.0718 27.9029 24.7211 27.0127 23.6553Z" fill="white"/>
<path d="M27.8848 27.7391C27.886 27.788 27.8865 27.8369 27.8865 27.886H28.5469C28.5469 27.7736 28.5441 27.6618 28.5386 27.5508C28.3259 27.6256 28.1077 27.6886 27.8848 27.7391Z" fill="white"/>
<path d="M24.7012 47.0371L26.5658 50.9994L28.4304 47.0371H24.7012Z" fill="white"/>
<path d="M22.5254 42.415L24.39 46.3774H28.7408L30.6054 42.415H22.5254Z" fill="white"/>
<path d="M20.3496 37.792L22.2142 41.7543H30.9157L32.7803 37.792H20.3496Z" fill="white"/>
<path d="M18.1758 33.1699L20.0404 37.1322H33.0927L34.9573 33.1699H18.1758Z" fill="white"/>
<path d="M37.1323 28.5469H16L17.8646 32.5091H35.2676L37.1323 28.5469Z" fill="white"/>
</g>
<path d="M58.1987 31.6468V35.3532C58.1987 35.6551 58.0818 35.9117 57.8471 36.1328C57.6045 36.346 57.3066 36.4569 56.9455 36.4717H48.7422V30.5283L56.9546 30.5279C57.3126 30.5144 57.6021 30.6194 57.8467 30.8585C58.0834 31.0673 58.1987 31.3254 58.1987 31.6468ZM59.6493 27.9697C59.0137 27.6583 58.3276 27.5 57.6109 27.5H45.1328V39.5H57.6109C58.3403 39.5 59.0244 39.3413 59.6401 39.0303C60.2848 38.7169 60.8099 38.2786 61.1976 37.7321C61.6208 37.1693 61.8265 36.5512 61.8078 35.9009V31.1058C61.8265 30.4496 61.624 29.8319 61.2128 29.2771C60.8369 28.723 60.3103 28.2827 59.6493 27.9697Z" fill="white"/>
<path d="M62.8906 39.5H77.6028V36.4721H66.5001V34.9428H76.1204V31.9566H66.5001V30.5283H77.6028V27.5004H62.8906V39.5Z" fill="white"/>
<path d="M93.3922 32.9871C92.5995 32.2473 91.6203 31.8723 90.4867 31.8723H90.4609C89.6929 31.8556 88.4858 31.8552 86.8749 31.8723C85.2578 31.8782 84.0618 31.881 83.287 31.881C83.0758 31.881 82.904 31.8158 82.7616 31.6818C82.6216 31.5505 82.5516 31.3966 82.5476 31.2172C82.5476 31.0335 82.612 30.8895 82.7588 30.7562C82.902 30.6127 83.0722 30.5518 83.287 30.5621L89.8627 30.5617C90.0803 30.5486 90.2517 30.6091 90.3965 30.7574C90.5341 30.8787 90.6005 31.0187 90.6053 31.1973L90.4553 31.4972H94.122V31.2172C94.122 30.1891 93.7231 29.3017 92.9364 28.5802C92.1604 27.8635 91.2011 27.5004 90.085 27.5004H82.715C81.6026 27.5358 80.6464 27.9101 79.8744 28.6113C79.0857 29.3105 78.6856 30.1871 78.6856 31.2172C78.6856 32.2342 79.0845 33.1188 79.8724 33.847C80.6536 34.557 81.6121 34.9201 82.7226 34.9261H90.161C90.4068 34.9261 90.612 35.0052 90.791 35.1703C90.9608 35.323 91.0436 35.504 91.0436 35.7239C91.0436 35.9355 90.962 36.1153 90.8049 36.2648C90.6295 36.4128 90.4148 36.4919 90.161 36.5059H82.9501C82.7043 36.5059 82.4991 36.4263 82.3221 36.2632C82.1507 36.105 82.0675 35.9232 82.0675 35.6901V35.461H78.6602V35.6901C78.6602 36.7469 79.0706 37.6573 79.882 38.3967C80.6965 39.1289 81.6837 39.5 82.8153 39.5H90.4557C91.6052 39.5 92.59 39.1281 93.3803 38.3967C94.2024 37.6581 94.6164 36.7473 94.6108 35.6941C94.6287 34.6353 94.2175 33.7233 93.3922 32.9871Z" fill="white"/>
<path d="M111.182 28.546C110.423 27.852 109.486 27.5004 108.399 27.5004H99.6293C98.5535 27.5004 97.62 27.852 96.8551 28.5456C96.0843 29.2449 95.6934 30.104 95.6934 31.0995V35.9013C95.6934 36.896 96.0811 37.7551 96.8468 38.4552C97.6112 39.1484 98.5475 39.5 99.6293 39.5H108.399C109.486 39.5 110.423 39.1484 111.181 38.4552C111.952 37.7555 112.341 36.896 112.335 35.9013V34.9472H108.725V35.3532C108.725 35.6555 108.608 35.9121 108.373 36.1332C108.131 36.3464 107.833 36.4573 107.472 36.4721H100.559C100.207 36.4673 99.9137 36.3587 99.6667 36.1451C99.4221 35.9192 99.3028 35.6599 99.3028 35.3532V31.6468C99.3028 31.3266 99.4173 31.072 99.6568 30.8652C99.9121 30.6337 100.2 30.5283 100.556 30.5283H107.481C107.839 30.5156 108.128 30.619 108.373 30.8589C108.61 31.0673 108.725 31.325 108.725 31.6468V32.07H112.335V31.1007C112.341 30.1048 111.952 29.2449 111.182 28.546Z" fill="white"/>
<path d="M113.4 39.5H128.113V36.4721H117.01V34.9428H126.631V31.9566H117.01V30.5283H128.113V27.5004H113.4V39.5Z" fill="white"/>
<path d="M142.296 35.3516L132.633 27.5H129.172V39.5H132.781V31.6567L142.381 39.4487L142.444 39.5H145.915V27.5H142.296V35.3516Z" fill="white"/>
<path d="M146.971 27.5004V30.5287H152.943V39.5H156.553V30.5287H162.534V27.5004H146.971Z" fill="white"/>
<defs>
<filter id="filter0_d_121_319" x="0" y="0" width="53.1328" height="66.999" filterUnits="userSpaceOnUse" color-interpolation-filters="sRGB">
<feFlood flood-opacity="0" result="BackgroundImageFix"/>
<feColorMatrix in="SourceAlpha" type="matrix" values="0 0 0 0 0 0 0 0 0 0 0 0 0 0 0 0 0 0 127 0" result="hardAlpha"/>
<feOffset/>
<feGaussianBlur stdDeviation="8"/>
<feComposite in2="hardAlpha" operator="out"/>
<feColorMatrix type="matrix" values="0 0 0 0 1 0 0 0 0 1 0 0 0 0 1 0 0 0 0.1 0"/>
<feBlend mode="normal" in2="BackgroundImageFix" result="effect1_dropShadow_121_319"/>
<feBlend mode="normal" in="SourceGraphic" in2="effect1_dropShadow_121_319" result="shape"/>
</filter>
</defs>
</svg>
