<svg width="200" height="67" viewBox="0 0 200 67" fill="none" xmlns="http://www.w3.org/2000/svg">
<g filter="url(#filter0_d_121_319)">
<path d="M28.5383 27.5516C30.8072 26.7535 32.4458 24.6173 32.5071 22.0903C32.0829 21.9941 31.6415 21.9434 31.1881 21.9434C29.5612 21.9434 28.0869 22.5971 27.0137 23.6561C27.9039 24.7219 28.4643 26.0727 28.5383 27.5516Z" fill="white"/>
<path d="M28.5391 27.5512C28.5446 27.6622 28.5474 27.774 28.5474 27.8864H29.4483C31.5566 26.8622 33.0382 24.749 33.1617 22.2782C32.9491 22.2034 32.7309 22.1404 32.5079 22.0898C32.4466 24.6169 30.808 26.7531 28.5391 27.5512Z" fill="white"/>
<path d="M37.1314 27.8866C37.1314 25.2956 35.4735 23.0919 33.1607 22.2783C33.0372 24.7492 31.5556 26.8623 29.4473 27.8866H37.1314Z" fill="white"/>
<path d="M19.9707 22.2783C17.6579 23.0919 16 25.2956 16 27.8866H23.6841C21.5758 26.8623 20.0942 24.7492 19.9707 22.2783Z" fill="white"/>
<path d="M24.5914 27.5512C22.3225 26.7531 20.6838 24.6169 20.6225 22.0898C20.3996 22.1404 20.1814 22.2034 19.9688 22.2782C20.0923 24.749 21.5738 26.8622 23.6822 27.8864H24.5831C24.5831 27.774 24.5859 27.6622 24.5914 27.5512Z" fill="white"/>
<path d="M20.623 22.0903C20.6843 24.6173 22.323 26.7535 24.5919 27.5516C24.6659 26.0727 25.2263 24.7219 26.1165 23.6561C25.0433 22.5971 23.569 21.9434 21.9421 21.9434C21.4888 21.9434 21.0473 21.9941 20.623 22.0903Z" fill="white"/>
<path d="M26.5646 24.1499C26.4244 23.9768 26.2748 23.8116 26.1163 23.6553C25.2262 24.7211 24.6658 26.0718 24.5918 27.5507C24.8045 27.6255 25.0227 27.6886 25.2456 27.7391C25.2786 26.3807 25.7672 25.1353 26.5646 24.1499Z" fill="white"/>
<path d="M26.5651 27.8864C27.0184 27.8864 27.4598 27.8357 27.8841 27.7395C27.8511 26.3812 27.3624 25.1357 26.5651 24.1504C25.7677 25.1357 25.279 26.3812 25.2461 27.7395C25.6703 27.8357 26.1118 27.8864 26.5651 27.8864Z" fill="white"/>
<path d="M24.5923 27.5508C24.5868 27.6618 24.584 27.7736 24.584 27.886H25.2444C25.2444 27.8369 25.245 27.788 25.2462 27.7391C25.0232 27.6886 24.805 27.6256 24.5923 27.5508Z" fill="white"/>
<path d="M26.5649 27.8862C26.1116 27.8862 25.6701 27.8354 25.2459 27.7393C25.2447 27.7881 25.2441 27.837 25.2441 27.8862H26.5649Z" fill="white"/>
<path d="M27.8834 27.7393C27.4592 27.8354 27.0178 27.8862 26.5645 27.8862H27.8852C27.8852 27.837 27.8846 27.7881 27.8834 27.7393Z" fill="white"/>
<path d="M32.4843 21.4104C32.2147 18.3777 29.6672 16 26.5644 16C23.4616 16 20.9141 18.3777 20.6445 21.4104C21.064 21.3269 21.4977 21.2831 21.9417 21.2831C23.7416 21.2831 25.3732 22.0031 26.5644 23.1708C27.7556 22.0031 29.3873 21.2831 31.1871 21.2831C31.6311 21.2831 32.0648 21.3269 32.4843 21.4104Z" fill="white"/>
<path d="M27.0127 23.6553C26.8543 23.8116 26.7046 23.9768 26.5645 24.1499C27.3618 25.1353 27.8505 26.3807 27.8834 27.7391C28.1064 27.6886 28.3246 27.6255 28.5373 27.5507C28.4633 26.0718 27.9029 24.7211 27.0127 23.6553Z" fill="white"/>
<path d="M27.8848 27.7391C27.886 27.788 27.8865 27.8369 27.8865 27.886H28.5469C28.5469 27.7736 28.5441 27.6618 28.5386 27.5508C28.3259 27.6256 28.1077 27.6886 27.8848 27.7391Z" fill="white"/>
<path d="M24.7012 47.0371L26.5658 50.9994L28.4304 47.0371H24.7012Z" fill="white"/>
<path d="M22.5254 42.415L24.39 46.3774H28.7408L30.6054 42.415H22.5254Z" fill="white"/>
<path d="M20.3496 37.792L22.2142 41.7543H30.9157L32.7803 37.792H20.3496Z" fill="white"/>
<path d="M18.1758 33.1699L20.0404 37.1322H33.0927L34.9573 33.1699H18.1758Z" fill="white"/>
<path d="M37.1323 28.5469H16L17.8646 32.5091H35.2676L37.1323 28.5469Z" fill="white"/>
</g>
<g filter="url(#filter1_d_121_319)">
<path d="M177.852 27H183.999L176.394 34.9601V39.4377H171.419V34.9601L163.814 27H170.211L174.031 31.2288L177.852 27Z" fill="white"/>
<path d="M153.07 33.4143L159.236 27H163.465V39.4377H158.667V33.1833L154.332 37.732H151.631L147.296 33.1833V39.4377H142.498V27H146.905L153.07 33.4143Z" fill="white"/>
<path d="M129.707 34.5692V35.9196H141.612V39.4377H124.732V27H141.435V30.5181H129.707V31.7264H140.724V34.5692H129.707Z" fill="white"/>
<path d="M119.015 39.4377H104.801V27H119.015C122 27 123.635 28.6169 123.635 31.6197V34.8179C123.635 37.8208 122 39.4377 119.015 39.4377ZM109.776 30.909V35.5288H117.665C118.322 35.5288 118.66 35.1911 118.66 34.5337V31.9039C118.66 31.2465 118.322 30.909 117.665 30.909H109.776Z" fill="white"/>
<path d="M104.449 39.4377H98.6213L97.573 37.5898H89.8971L88.8489 39.4377H83.2695L91.052 27H96.6668L104.449 39.4377ZM93.7351 30.8378L91.7273 34.3915H95.7607L93.7351 30.8378Z" fill="white"/>
<path d="M80.2515 39.4377H69.2352C66.6943 39.4377 65.5039 38.2651 65.5039 35.7063V30.7313C65.5039 28.1727 66.6943 27 69.2352 27H80.2515C82.7923 27 83.9828 28.1727 83.9828 30.7313V32.437H79.1854V31.6552C79.1854 31.0334 78.9899 30.8378 78.368 30.8378H71.2964C70.6744 30.8378 70.479 31.0334 70.479 31.6552V34.7825C70.479 35.4043 70.6744 35.5998 71.2964 35.5998H78.368C78.9899 35.5998 79.1854 35.4043 79.1854 34.7825V33.894H83.9828V35.7063C83.9828 38.2651 82.7923 39.4377 80.2515 39.4377Z" fill="white"/>
<path d="M66.1798 39.4377H60.3517L59.3034 37.5898H51.6275L50.5792 39.4377H45L52.7825 27H58.3973L66.1798 39.4377ZM55.4655 30.8378L53.4577 34.3915H57.491L55.4655 30.8378Z" fill="white"/>
</g>
<defs>
<filter id="filter0_d_121_319" x="0" y="0" width="53.1328" height="66.999" filterUnits="userSpaceOnUse" color-interpolation-filters="sRGB">
<feFlood flood-opacity="0" result="BackgroundImageFix"/>
<feColorMatrix in="SourceAlpha" type="matrix" values="0 0 0 0 0 0 0 0 0 0 0 0 0 0 0 0 0 0 127 0" result="hardAlpha"/>
<feOffset/>
<feGaussianBlur stdDeviation="8"/>
<feComposite in2="hardAlpha" operator="out"/>
<feColorMatrix type="matrix" values="0 0 0 0 1 0 0 0 0 1 0 0 0 0 1 0 0 0 0.1 0"/>
<feBlend mode="normal" in2="BackgroundImageFix" result="effect1_dropShadow_121_319"/>
<feBlend mode="normal" in="SourceGraphic" in2="effect1_dropShadow_121_319" result="shape"/>
</filter>
<filter id="filter1_d_121_319" x="29" y="11" width="171" height="44.4375" filterUnits="userSpaceOnUse" color-interpolation-filters="sRGB">
<feFlood flood-opacity="0" result="BackgroundImageFix"/>
<feColorMatrix in="SourceAlpha" type="matrix" values="0 0 0 0 0 0 0 0 0 0 0 0 0 0 0 0 0 0 127 0" result="hardAlpha"/>
<feOffset/>
<feGaussianBlur stdDeviation="8"/>
<feComposite in2="hardAlpha" operator="out"/>
<feColorMatrix type="matrix" values="0 0 0 0 1 0 0 0 0 1 0 0 0 0 1 0 0 0 0.1 0"/>
<feBlend mode="normal" in2="BackgroundImageFix" result="effect1_dropShadow_121_319"/>
<feBlend mode="normal" in="SourceGraphic" in2="effect1_dropShadow_121_319" result="shape"/>
</filter>
</defs>
</svg>
