<svg width="32" height="32" viewBox="0 0 32 32" fill="none" xmlns="http://www.w3.org/2000/svg">
<rect width="32" height="32" rx="6" fill="#000"/>
<g transform="translate(5.4, 1.5) scale(0.78)">
<path d="M12.5383 11.5516C14.8072 10.7535 16.4458 8.6173 16.5071 6.0903C16.0829 5.9941 15.6415 5.9434 15.1881 5.9434C13.5612 5.9434 12.0869 6.5971 11.0137 7.6561C11.9039 8.7219 12.4643 10.0727 12.5383 11.5516Z" fill="white"/>
<path d="M12.5391 11.5512C12.5446 11.6622 12.5474 11.774 12.5474 11.8864H13.4483C15.5566 10.8622 17.0382 8.749 17.1617 6.2782C16.9491 6.2034 16.7309 6.1404 16.5079 6.0898C16.4466 8.6169 14.808 10.7531 12.5391 11.5512Z" fill="white"/>
<path d="M21.1314 11.8866C21.1314 9.2956 19.4735 7.0919 17.1607 6.2783C17.0372 8.7492 15.5556 10.8623 13.4473 11.8866H21.1314Z" fill="white"/>
<path d="M3.9707 6.2783C1.6579 7.0919 0 9.2956 0 11.8866H7.6841C5.5758 10.8623 4.0942 8.7492 3.9707 6.2783Z" fill="white"/>
<path d="M8.5914 11.5512C6.3225 10.7531 4.6838 8.6169 4.6225 6.0898C4.3996 6.1404 4.1814 6.2034 3.9688 6.2782C4.0923 8.749 5.5738 10.8622 7.6822 11.8864H8.5831C8.5831 11.774 8.5859 11.6622 8.5914 11.5512Z" fill="white"/>
<path d="M4.623 6.0903C4.6843 8.6173 6.323 10.7535 8.5919 11.5516C8.6659 10.0727 9.2263 8.7219 10.1165 7.6561C9.0433 6.5971 7.569 5.9434 5.9421 5.9434C5.4888 5.9434 5.0473 5.9941 4.623 6.0903Z" fill="white"/>
<path d="M10.5646 8.1499C10.4244 7.9768 10.2748 7.8116 10.1163 7.6553C9.2262 8.7211 8.6658 10.0718 8.5918 11.5507C8.8045 11.6255 9.0227 11.6886 9.2456 11.7391C9.2786 10.3807 9.7672 9.1353 10.5646 8.1499Z" fill="white"/>
<path d="M10.5651 11.8864C11.0184 11.8864 11.4598 11.8357 11.8841 11.7395C11.8511 10.3812 11.3624 9.1357 10.5651 8.1504C9.7677 9.1357 9.279 10.3812 9.2461 11.7395C9.6703 11.8357 10.1118 11.8864 10.5651 11.8864Z" fill="white"/>
<path d="M8.5923 11.5508C8.5868 11.6618 8.584 11.7736 8.584 11.886H9.2444C9.2444 11.8369 9.245 11.788 9.2462 11.7391C9.0232 11.6886 8.805 11.6256 8.5923 11.5508Z" fill="white"/>
<path d="M10.5649 11.8862C10.1116 11.8862 9.6701 11.8354 9.2459 11.7393C9.2447 11.7881 9.2441 11.837 9.2441 11.8862H10.5649Z" fill="white"/>
<path d="M11.8834 11.7393C11.4592 11.8354 11.0178 11.8862 10.5645 11.8862H11.8852C11.8852 11.837 11.8846 11.7881 11.8834 11.7393Z" fill="white"/>
<path d="M16.4843 5.4104C16.2147 2.3777 13.6672 0 10.5644 0C7.4616 0 4.9141 2.3777 4.6445 5.4104C5.064 5.3269 5.4977 5.2831 5.9417 5.2831C7.7416 5.2831 9.3732 6.0031 10.5644 7.1708C11.7556 6.0031 13.3873 5.2831 15.1871 5.2831C15.6311 5.2831 16.0648 5.3269 16.4843 5.4104Z" fill="white"/>
<path d="M11.0127 7.6553C10.8543 7.8116 10.7046 7.9768 10.5645 8.1499C11.3618 9.1353 11.8505 10.3807 11.8834 11.7391C12.1064 11.6886 12.3246 11.6255 12.5373 11.5507C12.4633 10.0718 11.9029 8.7211 11.0127 7.6553Z" fill="white"/>
<path d="M11.8848 11.7391C11.886 11.788 11.8865 11.8369 11.8865 11.886H12.5469C12.5469 11.7736 12.5441 11.6618 12.5386 11.5508C12.3259 11.6256 12.1077 11.6886 11.8848 11.7391Z" fill="white"/>
<path d="M8.7012 31.0371L10.5658 34.9994L12.4304 31.0371H8.7012Z" fill="white"/>
<path d="M6.5254 26.415L8.39 30.3774H12.7408L14.6054 26.415H6.5254Z" fill="white"/>
<path d="M4.3496 21.792L6.2142 25.7543H14.9157L16.7803 21.792H4.3496Z" fill="white"/>
<path d="M2.1758 17.1699L4.0404 21.1322H17.0927L18.9573 17.1699H2.1758Z" fill="white"/>
<path d="M21.1323 12.5469H0L1.8646 16.5091H19.2676L21.1323 12.5469Z" fill="white"/>
</g>
</svg>
